<?xml version="1.0" standalone="no"?>
<!DOCTYPE svg PUBLIC "-//W3C//DTD SVG 20010904//EN" "http://www.w3.org/TR/2001/REC-SVG-20010904/DTD/svg10.dtd">
<svg version="1.0" xmlns="http://www.w3.org/2000/svg" width="641.000000pt" height="193.000000pt"
    viewBox="0 0 641.000000 193.000000" preserveAspectRatio="xMidYMid meet">

    <g transform="translate(0.000000,193.000000) scale(0.100000,-0.100000)" fill="#216961" stroke="none">
        <path d="M1674 1854 c-23 -8 -59 -31 -79 -51 -109 -105 -97 -247 29 -359 31
-28 69 -71 85 -95 15 -24 40 -55 55 -68 37 -34 34 -71 -9 -117 -19 -20 -34
-39 -32 -40 11 -12 88 24 119 56 30 29 38 45 38 73 0 33 4 38 43 55 53 23 77
68 77 139 l-1 48 -19 -37 c-26 -48 -56 -68 -104 -68 -22 0 -47 -7 -56 -15 -15
-14 -19 -14 -31 1 -11 14 -10 19 15 37 55 40 70 120 37 192 -23 50 -58 83 -97
91 -38 7 -64 -15 -64 -54 0 -37 9 -47 53 -65 42 -18 50 -52 19 -80 -40 -37
-116 -6 -146 58 -29 61 -30 104 -4 155 63 123 209 120 298 -5 87 -122 126
-139 190 -85 38 33 65 37 94 15 30 -22 2001 -22 2030 0 29 22 49 19 91 -15 67
-53 101 -39 179 72 52 73 105 108 167 108 117 0 190 -121 141 -233 -35 -79
-124 -114 -158 -62 -22 33 -10 61 32 75 43 14 59 45 45 83 -32 83 -154 6 -177
-111 -9 -46 20 -116 57 -140 26 -16 28 -20 15 -31 -11 -9 -20 -10 -35 -2 -11
6 -35 11 -54 11 -39 0 -80 28 -108 74 l-19 31 0 -43 c0 -23 6 -57 14 -76 16
-37 60 -76 87 -76 15 0 19 -7 19 -32 0 -42 31 -92 72 -119 18 -12 25 -19 16
-15 -19 6 -38 -20 -38 -52 0 -25 56 -74 122 -108 l50 -26 -49 -23 c-27 -12
-69 -41 -92 -63 -42 -40 -42 -40 -27 -71 15 -27 18 -29 45 -20 21 7 27 15 24
28 -11 43 125 111 220 111 40 0 59 -5 75 -20 27 -26 37 -62 23 -88 -16 -30
-44 -35 -86 -17 -49 20 -68 19 -89 -4 -37 -41 -17 -126 27 -119 20 3 30 15 42
53 6 18 9 15 26 -17 23 -45 68 -71 105 -62 29 7 64 57 64 91 0 23 8 27 75 38
22 4 66 20 98 36 32 16 59 29 61 29 10 0 26 -69 26 -113 0 -100 -66 -183 -169
-214 -94 -27 -212 0 -319 74 -49 33 -133 124 -145 155 -3 9 -12 6 -28 -10
l-24 -22 20 -36 c48 -89 221 -215 317 -230 21 -4 38 -8 38 -10 0 -1 -13 -16
-30 -32 -53 -53 -30 -139 48 -185 l33 -19 -21 53 c-34 86 -10 119 146 197 47
24 95 57 116 80 69 77 94 195 65 308 -13 50 -13 52 15 83 15 17 28 36 28 41 0
5 -13 24 -28 42 -27 31 -28 35 -16 73 19 62 17 157 -6 218 -30 80 -77 128
-172 177 -160 82 -180 108 -148 192 11 29 18 53 17 55 -8 8 -70 -41 -87 -69
-31 -51 -26 -95 14 -133 l35 -33 -42 -6 c-101 -16 -273 -139 -322 -230 -19
-36 -19 -36 2 -58 13 -12 24 -20 26 -17 65 91 96 123 154 162 87 58 151 79
238 80 61 1 78 -3 125 -29 32 -18 68 -49 85 -73 28 -39 30 -50 30 -126 0 -47
-5 -89 -11 -95 -7 -7 -30 -2 -77 20 -36 18 -88 35 -114 38 -43 7 -48 10 -54
40 -7 35 -31 67 -62 84 -29 15 -74 -9 -101 -55 l-24 -40 -16 36 c-16 40 -44
49 -67 21 -20 -24 -14 -83 10 -107 19 -19 25 -20 66 -9 90 24 124 6 110 -59
-9 -41 -40 -59 -100 -59 -105 0 -234 65 -222 111 3 10 0 21 -7 24 -6 3 1 3 17
0 35 -7 34 0 -8 46 -19 22 -35 49 -35 60 0 12 23 46 50 76 28 30 50 61 50 69
0 7 23 31 51 51 158 119 161 311 4 408 -40 25 -59 30 -109 30 -79 0 -140 -35
-197 -111 -22 -30 -47 -58 -54 -60 -8 -3 -31 6 -52 20 -49 34 -75 33 -116 -4
l-35 -30 -1000 0 c-815 0 -1002 2 -1009 13 -13 21 -56 47 -77 47 -11 0 -37
-12 -57 -26 -43 -29 -64 -24 -94 23 -68 107 -181 154 -281 117z m3544 -870
c29 -14 52 -30 52 -35 0 -5 -23 -21 -52 -35 -71 -36 -133 -36 -187 -1 -23 15
-41 31 -41 37 0 5 19 20 43 34 56 34 116 34 185 0z" />
        <path d="M1360 1696 c0 -2 7 -20 15 -39 8 -20 15 -45 15 -56 0 -35 -50 -80
-138 -126 -48 -24 -103 -58 -122 -74 -79 -64 -117 -208 -86 -321 l15 -55 -31
-38 -30 -38 30 -38 30 -37 -15 -55 c-30 -111 6 -251 82 -318 19 -16 75 -51
124 -76 95 -49 141 -91 141 -128 0 -12 -9 -41 -20 -64 -25 -55 -9 -55 46 1 39
39 44 48 44 90 0 45 -24 86 -50 86 -5 0 -10 4 -10 9 0 5 17 11 38 15 92 15
226 103 293 192 44 57 47 74 20 98 -17 16 -19 14 -46 -25 -67 -96 -192 -177
-307 -200 -180 -36 -330 93 -304 263 11 70 16 73 72 45 46 -23 93 -39 155 -51
21 -5 28 -13 33 -40 7 -37 55 -86 85 -86 26 0 59 28 80 68 l19 37 15 -38 c17
-41 44 -49 71 -21 23 23 20 69 -8 101 l-24 27 -57 -18 c-54 -17 -58 -17 -76 0
-11 10 -19 30 -19 50 0 68 83 93 198 59 59 -18 122 -67 122 -96 0 -12 10 -23
26 -29 33 -13 30 -15 44 23 11 31 10 33 -35 74 -25 23 -64 50 -85 59 -22 10
-40 21 -40 24 0 3 18 14 40 24 21 9 60 36 85 59 45 41 46 43 35 75 -14 37 -11
35 -43 21 -13 -6 -27 -25 -33 -42 -14 -47 -104 -91 -198 -95 -62 -3 -74 -1
-94 18 -17 16 -22 31 -20 57 4 52 31 66 87 46 54 -18 84 -11 99 22 17 36 15
59 -6 85 -25 30 -61 19 -69 -21 -7 -37 -17 -37 -33 0 -17 42 -45 64 -81 64
-37 0 -66 -27 -83 -78 -13 -37 -17 -39 -73 -51 -33 -7 -83 -24 -111 -38 -28
-14 -54 -26 -56 -26 -3 0 -10 17 -15 38 -39 138 39 261 186 292 63 14 171 -7
245 -47 52 -28 146 -113 185 -168 21 -30 21 -30 37 -10 24 31 19 48 -31 107
-82 94 -201 171 -285 184 -36 6 -54 24 -24 24 24 0 46 42 46 88 0 38 -6 50
-39 83 -33 33 -61 49 -61 35z m3 -711 c20 -14 37 -30 37 -35 0 -5 -19 -22 -42
-37 -55 -37 -117 -36 -187 3 -28 15 -51 30 -51 34 0 3 23 18 52 33 70 36 139
37 191 2z" />
        <path d="M1111 1672 c-18 -9 -41 -30 -50 -47 -9 -16 -17 -32 -18 -34 -1 -2
-25 6 -52 18 -57 24 -159 28 -225 9 -24 -7 -61 -32 -87 -58 -54 -52 -74 -108
-63 -174 27 -167 184 -230 288 -116 33 36 36 46 36 98 0 66 -15 93 -60 112
-24 10 -36 10 -61 0 -26 -11 -30 -17 -27 -44 3 -29 6 -31 45 -34 30 -2 44 -8
48 -21 14 -44 -44 -101 -102 -101 -107 0 -142 185 -48 258 69 55 157 52 282
-8 35 -17 72 -29 81 -26 10 4 30 31 45 62 28 56 65 83 119 85 19 0 15 4 -17
20 -50 23 -91 24 -134 1z" />
        <path d="M5163 1679 c-47 -14 -48 -26 -4 -34 44 -7 67 -28 96 -88 32 -65 42
-66 137 -22 70 34 93 40 149 40 56 0 71 -4 102 -28 54 -41 70 -78 65 -150 -4
-53 -9 -64 -38 -90 -28 -25 -39 -28 -72 -24 -53 7 -90 42 -86 82 3 27 7 30 40
33 43 4 62 23 53 52 -17 53 -112 44 -141 -12 -21 -40 -14 -120 13 -156 33 -45
92 -73 140 -69 100 10 157 84 158 204 0 63 -3 76 -30 114 -19 27 -51 54 -85
72 -50 26 -62 28 -140 25 -62 -2 -97 -9 -128 -24 l-43 -22 -13 33 c-25 59
-100 87 -173 64z" />
        <path d="M376 1135 c-93 -90 -145 -133 -187 -152 -56 -27 -73 -43 -46 -43 31
0 141 -84 246 -189 106 -104 115 -111 153 -111 56 0 93 41 109 120 30 156 108
162 182 14 26 -51 77 -104 101 -104 8 0 25 9 39 20 29 23 42 72 32 118 -8 39
-67 99 -118 122 l-40 18 35 15 c52 22 116 89 123 131 14 71 -18 129 -70 129
-34 0 -71 -36 -102 -98 -70 -139 -156 -140 -179 -1 -8 53 -39 112 -63 126 -11
5 -35 10 -53 10 -28 -1 -51 -18 -162 -125z m213 58 c6 -21 11 -54 11 -74 0
-51 45 -136 83 -156 29 -15 30 -16 11 -23 -47 -18 -94 -102 -94 -170 0 -33
-18 -98 -29 -105 -5 -3 -38 32 -74 77 -61 79 -117 136 -181 186 l-30 23 25 16
c48 34 141 129 191 195 27 37 56 68 63 68 8 0 19 -17 24 -37z" />
        <path d="M490 1049 c-15 -35 -83 -89 -112 -89 -10 0 -18 -4 -18 -10 0 -5 7
-10 16 -10 30 0 83 -41 108 -82 l24 -41 15 34 c17 42 70 89 100 89 16 0 10 7
-23 23 -32 17 -51 35 -67 66 -29 57 -28 57 -43 20z" />
        <path d="M5786 1228 c-25 -25 -36 -48 -45 -95 -29 -149 -112 -152 -185 -6 -42
85 -84 111 -136 83 -29 -15 -43 -71 -31 -118 12 -45 84 -117 125 -128 35 -8
33 -18 -8 -32 -47 -17 -111 -90 -120 -135 -9 -46 14 -103 48 -118 40 -19 83
14 126 95 40 76 70 106 105 106 30 0 63 -41 70 -89 10 -60 35 -120 58 -136 12
-8 39 -15 60 -15 36 0 48 9 170 128 87 84 150 136 184 152 29 14 52 27 52 30
0 3 -23 16 -52 29 -35 17 -94 66 -184 153 -120 116 -136 128 -169 128 -27 0
-44 -8 -68 -32z m136 -104 c31 -39 82 -93 115 -119 32 -26 58 -51 58 -55 0 -4
-25 -28 -55 -54 -59 -50 -138 -138 -177 -198 -15 -23 -30 -35 -39 -31 -8 3
-14 6 -14 8 0 1 -7 42 -15 91 -18 100 -44 150 -88 169 l-31 13 31 16 c45 23
73 75 87 166 7 44 19 87 27 96 12 15 15 14 29 -7 8 -13 40 -56 72 -95z" />
        <path d="M5872 1052 c-13 -43 -64 -92 -95 -92 -10 0 -17 -4 -17 -10 0 -5 9
-10 19 -10 31 0 80 -48 93 -92 l12 -41 12 30 c16 39 78 92 115 100 31 6 30 23
-2 23 -25 0 -97 66 -113 104 l-12 29 -12 -41z" />
        <path d="M1720 774 c0 -2 16 -20 35 -40 63 -63 44 -103 -127 -272 -111 -110
-134 -199 -80 -303 50 -97 158 -147 257 -119 50 14 127 76 150 121 25 48 51
55 94 25 20 -14 46 -26 57 -26 23 0 84 36 84 50 0 7 331 10 1001 10 l1001 0
35 -30 c41 -37 63 -37 120 -4 l43 25 28 -30 c15 -16 40 -45 55 -65 34 -42 118
-86 165 -86 127 0 232 105 232 231 -1 75 -26 125 -99 191 -34 31 -75 76 -90
100 -16 23 -40 54 -55 67 -35 33 -33 63 9 110 42 47 43 52 7 42 -82 -24 -132
-76 -132 -138 0 -26 -4 -32 -29 -38 -54 -12 -91 -72 -90 -148 0 -37 2 -40 12
-22 7 11 26 34 44 52 26 28 38 33 75 33 24 0 49 5 56 12 8 8 15 8 26 -1 13
-11 10 -17 -19 -43 -68 -59 -68 -156 -1 -234 26 -30 39 -37 71 -38 34 -1 41 3
53 28 19 39 3 74 -39 83 -38 7 -56 41 -40 72 27 49 106 33 148 -30 74 -113 7
-260 -120 -261 -64 -1 -127 38 -177 111 -45 68 -83 101 -114 101 -11 0 -39
-14 -60 -30 -44 -33 -71 -37 -100 -15 -30 22 -1991 22 -2020 0 -29 -22 -56
-18 -100 15 -66 50 -99 38 -167 -61 -56 -83 -108 -119 -171 -119 -86 0 -151
54 -164 135 -16 111 109 234 169 167 30 -33 16 -82 -24 -82 -26 0 -49 -28 -49
-60 0 -61 57 -78 111 -33 84 71 90 204 13 261 -23 16 -27 23 -16 33 9 10 15
10 24 1 7 -7 30 -12 53 -12 52 -1 82 -18 112 -66 l24 -39 -3 63 c-4 52 -9 67
-33 92 -15 16 -41 32 -56 35 -26 6 -29 11 -29 46 0 53 -47 104 -112 124 -27 8
-48 12 -48 9z" />
        <path d="M730 674 c-74 -32 -113 -96 -114 -190 -1 -85 37 -147 117 -188 74
-38 175 -41 251 -8 27 12 51 22 55 22 3 0 12 -14 20 -31 28 -64 109 -86 186
-50 l40 19 -30 1 c-48 2 -88 33 -114 89 -13 27 -32 52 -41 55 -10 2 -53 -11
-96 -31 -66 -30 -91 -36 -150 -36 -63 -1 -75 2 -108 28 -49 37 -70 86 -63 149
5 60 33 99 79 111 41 10 81 -6 111 -45 29 -40 16 -69 -33 -69 -39 0 -50 -11
-50 -50 0 -48 93 -50 131 -2 17 23 20 37 17 89 -4 72 -27 103 -93 134 -48 22
-69 23 -115 3z" />
        <path d="M5540 668 c-56 -29 -81 -64 -87 -122 -7 -57 11 -102 48 -121 38 -20
62 -19 90 4 20 16 22 22 12 44 -9 20 -21 26 -50 29 -36 3 -38 5 -38 38 0 28 6
38 34 57 46 31 84 29 123 -6 32 -28 33 -32 33 -105 0 -72 -1 -76 -34 -110 -67
-69 -157 -73 -285 -12 -89 42 -105 39 -134 -27 -25 -55 -50 -76 -103 -85 l-44
-8 43 -17 c80 -32 154 -12 187 53 8 16 17 30 19 30 2 0 25 -10 52 -22 35 -16
69 -22 119 -22 136 -1 242 80 253 192 11 118 -74 232 -172 232 -12 0 -42 -10
-66 -22z" />
    </g>
</svg>